<mxfile host="65bd71144e">
    <diagram name="Page-1" id="c4acf3e9-155e-7222-9cf6-157b1a14988f">
        <mxGraphModel dx="5331" dy="1043" grid="1" gridSize="10" guides="1" tooltips="1" connect="1" arrows="1" fold="1" page="1" pageScale="1" pageWidth="3300" pageHeight="4681" background="none" math="0" shadow="0">
            <root>
                <mxCell id="0"/>
                <mxCell id="1" parent="0"/>
                <mxCell id="CI6Zdgakn2NXTunETvcN-31" value="Module" style="shape=module;align=left;spacingLeft=20;align=center;verticalAlign=top;whiteSpace=wrap;html=1;" parent="1" vertex="1">
                    <mxGeometry x="110" y="180" width="380" height="510" as="geometry"/>
                </mxCell>
                <mxCell id="CI6Zdgakn2NXTunETvcN-2" value="&lt;p style=&quot;margin:0px;margin-top:4px;text-align:center;&quot;&gt;&lt;b&gt;License&lt;/b&gt;&lt;/p&gt;&lt;hr size=&quot;1&quot;&gt;&amp;nbsp;+ LicenseCode: string&lt;br&gt;&amp;nbsp;+ ActivationCode: string&lt;br&gt;&amp;nbsp;+ ActivationCodeGenVersion: string&lt;br&gt;&lt;p style=&quot;margin:0px;margin-left:4px;&quot;&gt;+ LeaseTerm: int&lt;br&gt;&lt;/p&gt;&lt;p style=&quot;margin:0px;margin-left:4px;&quot;&gt;+ RegisterDate: Datetime&lt;br&gt;&lt;/p&gt;&lt;p style=&quot;margin:0px;margin-left:4px;&quot;&gt;+ ActivationDate: Datetime&lt;/p&gt;&lt;p style=&quot;margin:0px;margin-left:4px;&quot;&gt;+ IsTimeLess: bool&lt;/p&gt;&lt;p style=&quot;margin:0px;margin-left:4px;&quot;&gt;+ IsActive: bool&lt;/p&gt;&lt;hr size=&quot;1&quot;&gt;&lt;p style=&quot;margin:0px;margin-left:4px;&quot;&gt;+ IsValid(): bool&lt;br&gt;&lt;/p&gt;&lt;p style=&quot;margin:0px;margin-left:4px;&quot;&gt;+ TerminationDate(): Datetime&lt;br&gt;&lt;/p&gt;" style="verticalAlign=top;align=left;overflow=fill;fontSize=12;fontFamily=Helvetica;html=1;whiteSpace=wrap;" parent="1" vertex="1">
                    <mxGeometry x="1340" y="580" width="210" height="210" as="geometry"/>
                </mxCell>
                <mxCell id="CI6Zdgakn2NXTunETvcN-4" value="&lt;p style=&quot;margin:0px;margin-top:4px;text-align:center;&quot;&gt;&lt;b&gt;WorkStation&lt;/b&gt;&lt;/p&gt;&lt;hr size=&quot;1&quot;&gt;&lt;p style=&quot;margin:0px;margin-left:4px;&quot;&gt;+ HardDrive: string&lt;/p&gt;&lt;p style=&quot;margin:0px;margin-left:4px;&quot;&gt;+ Cpu: string&lt;/p&gt;&lt;p style=&quot;margin:0px;margin-left:4px;&quot;&gt;+ UserName: string&lt;/p&gt;&lt;p style=&quot;margin:0px;margin-left:4px;&quot;&gt;+ ComputerName: string&lt;br&gt;&lt;/p&gt;&lt;p style=&quot;margin:0px;margin-left:4px;&quot;&gt;+ OperatingSystem: string&lt;br&gt;&lt;/p&gt;&lt;p style=&quot;margin:0px;margin-left:4px;&quot;&gt;+ SystemBitVersion: string&lt;br&gt;&lt;/p&gt;&lt;p style=&quot;margin:0px;margin-left:4px;&quot;&gt;+ Bios: string&lt;br&gt;&lt;/p&gt;&lt;p style=&quot;margin:0px;margin-left:4px;&quot;&gt;&lt;br&gt;&lt;/p&gt;&lt;hr size=&quot;1&quot;&gt;&lt;p style=&quot;margin:0px;margin-left:4px;&quot;&gt;+ IsValid(): Bool&lt;br&gt;&lt;/p&gt;" style="verticalAlign=top;align=left;overflow=fill;fontSize=12;fontFamily=Helvetica;html=1;whiteSpace=wrap;" parent="1" vertex="1">
                    <mxGeometry x="1340" y="810" width="210" height="210" as="geometry"/>
                </mxCell>
                <mxCell id="CI6Zdgakn2NXTunETvcN-5" value="&lt;p style=&quot;margin:0px;margin-top:4px;text-align:center;&quot;&gt;&lt;b&gt;Product&lt;/b&gt;&lt;/p&gt;&lt;hr size=&quot;1&quot;&gt;&lt;p style=&quot;margin:0px;margin-left:4px;&quot;&gt;+ Name: string&lt;/p&gt;&lt;p style=&quot;margin:0px;margin-left:4px;&quot;&gt;+ Version: string&lt;br&gt;&lt;/p&gt;&lt;p style=&quot;border-color: var(--border-color); margin: 0px 0px 0px 4px;&quot;&gt;+ VersionIssue: string&lt;/p&gt;&lt;p style=&quot;border-color: var(--border-color); margin: 0px 0px 0px 4px;&quot;&gt;&lt;br style=&quot;border-color: var(--border-color);&quot;&gt;&lt;/p&gt;&lt;hr size=&quot;1&quot;&gt;&lt;p style=&quot;margin:0px;margin-left:4px;&quot;&gt;&lt;br&gt;&lt;/p&gt;" style="verticalAlign=top;align=left;overflow=fill;fontSize=12;fontFamily=Helvetica;html=1;whiteSpace=wrap;" parent="1" vertex="1">
                    <mxGeometry x="1340" y="440" width="210" height="120" as="geometry"/>
                </mxCell>
                <mxCell id="CI6Zdgakn2NXTunETvcN-6" value="&lt;p style=&quot;margin:0px;margin-top:4px;text-align:center;&quot;&gt;&lt;b&gt;Order&lt;/b&gt;&lt;/p&gt;&lt;hr size=&quot;1&quot;&gt;&lt;p style=&quot;margin:0px;margin-left:4px;&quot;&gt;+ FvNumber: string&lt;/p&gt;&lt;p style=&quot;margin:0px;margin-left:4px;&quot;&gt;+ Date: Datetime&lt;br&gt;&lt;/p&gt;&lt;p style=&quot;border-color: var(--border-color); margin: 0px 0px 0px 4px;&quot;&gt;+ PaymentMethod: string&lt;br style=&quot;border-color: var(--border-color);&quot;&gt;&lt;/p&gt;&lt;p style=&quot;border-color: var(--border-color); margin: 0px 0px 0px 4px;&quot;&gt;+ Client: Client&lt;/p&gt;&lt;p style=&quot;border-color: var(--border-color); margin: 0px 0px 0px 4px;&quot;&gt;+ Items: List&amp;lt;OrderItem&amp;gt;&lt;/p&gt;&lt;p style=&quot;border-color: var(--border-color); margin: 0px 0px 0px 4px;&quot;&gt;+ Description: string&lt;br&gt;&lt;/p&gt;&lt;hr size=&quot;1&quot;&gt;&lt;p style=&quot;margin:0px;margin-left:4px;&quot;&gt;&lt;br&gt;&lt;/p&gt;" style="verticalAlign=top;align=left;overflow=fill;fontSize=12;fontFamily=Helvetica;html=1;whiteSpace=wrap;" parent="1" vertex="1">
                    <mxGeometry x="2080" y="400" width="220" height="160" as="geometry"/>
                </mxCell>
                <mxCell id="CI6Zdgakn2NXTunETvcN-8" value="" style="endArrow=diamondThin;endFill=0;endSize=24;html=1;rounded=0;exitX=1;exitY=0.5;exitDx=0;exitDy=0;entryX=0.001;entryY=0.628;entryDx=0;entryDy=0;entryPerimeter=0;" parent="1" source="CI6Zdgakn2NXTunETvcN-2" target="CI6Zdgakn2NXTunETvcN-15" edge="1">
                    <mxGeometry width="160" relative="1" as="geometry">
                        <mxPoint x="1630" y="560" as="sourcePoint"/>
                        <mxPoint x="1790" y="560" as="targetPoint"/>
                    </mxGeometry>
                </mxCell>
                <mxCell id="CI6Zdgakn2NXTunETvcN-9" value="" style="endArrow=diamondThin;endFill=0;endSize=24;html=1;rounded=0;exitX=1;exitY=0.5;exitDx=0;exitDy=0;entryX=0;entryY=0.5;entryDx=0;entryDy=0;" parent="1" source="CI6Zdgakn2NXTunETvcN-5" target="CI6Zdgakn2NXTunETvcN-15" edge="1">
                    <mxGeometry width="160" relative="1" as="geometry">
                        <mxPoint x="1630" y="560" as="sourcePoint"/>
                        <mxPoint x="1790" y="560" as="targetPoint"/>
                    </mxGeometry>
                </mxCell>
                <mxCell id="CI6Zdgakn2NXTunETvcN-10" value="&lt;p style=&quot;margin:0px;margin-top:4px;text-align:center;&quot;&gt;&lt;b&gt;Client&lt;/b&gt;&lt;/p&gt;&lt;hr size=&quot;1&quot;&gt;&lt;p style=&quot;margin:0px;margin-left:4px;&quot;&gt;+ Name: string&lt;/p&gt;&lt;p style=&quot;margin:0px;margin-left:4px;&quot;&gt;+ NIP: string&lt;br&gt;&lt;/p&gt;&lt;p style=&quot;border-color: var(--border-color); margin: 0px 0px 0px 4px;&quot;&gt;+ Address: string&lt;br style=&quot;border-color: var(--border-color);&quot;&gt;&lt;/p&gt;&lt;div&gt;&amp;nbsp;+ Website: string&lt;br&gt;&lt;/div&gt;&lt;p style=&quot;border-color: var(--border-color); margin: 0px 0px 0px 4px;&quot;&gt;+ IsOnePersonCompany: bool&lt;/p&gt;&lt;p style=&quot;border-color: var(--border-color); margin: 0px 0px 0px 4px;&quot;&gt;+ Users: List&amp;lt;User&amp;gt;&lt;/p&gt;&amp;nbsp;+ Description: string&lt;br&gt;&lt;hr size=&quot;1&quot;&gt;&lt;p style=&quot;margin:0px;margin-left:4px;&quot;&gt;+ Size(): int&lt;br&gt;&lt;/p&gt;&lt;p style=&quot;margin:0px;margin-left:4px;&quot;&gt;+ AddUser(User u): void&lt;br&gt;&lt;/p&gt;&lt;p style=&quot;margin:0px;margin-left:4px;&quot;&gt;+ EditDescription(string desc): void&lt;br&gt;&lt;/p&gt;" style="verticalAlign=top;align=left;overflow=fill;fontSize=12;fontFamily=Helvetica;html=1;whiteSpace=wrap;" parent="1" vertex="1">
                    <mxGeometry x="1720" y="210" width="220" height="200" as="geometry"/>
                </mxCell>
                <mxCell id="CI6Zdgakn2NXTunETvcN-11" value="&lt;p style=&quot;margin:0px;margin-top:4px;text-align:center;&quot;&gt;&lt;b&gt;User&lt;/b&gt;&lt;/p&gt;&lt;hr size=&quot;1&quot;&gt;&lt;p style=&quot;margin:0px;margin-left:4px;&quot;&gt;+ Name: string&lt;/p&gt;&lt;p style=&quot;margin:0px;margin-left:4px;&quot;&gt;+ Position: string&lt;br&gt;&lt;/p&gt;&lt;p style=&quot;border-color: var(--border-color); margin: 0px 0px 0px 4px;&quot;&gt;+ PhoneNumbers: List&amp;lt;string&amp;gt;&lt;/p&gt;&amp;nbsp;+ Emails: List&amp;lt;string&amp;gt;&lt;br&gt;&amp;nbsp;+ IpAddress: List&amp;lt;string&amp;gt;&lt;p style=&quot;border-color: var(--border-color); margin: 0px 0px 0px 4px;&quot;&gt;+ Description: string&lt;br&gt;&lt;/p&gt;&lt;hr size=&quot;1&quot;&gt;&lt;p style=&quot;margin:0px;margin-left:4px;&quot;&gt;+ EditDescription(string desc): void&lt;br&gt;&lt;/p&gt;" style="verticalAlign=top;align=left;overflow=fill;fontSize=12;fontFamily=Helvetica;html=1;whiteSpace=wrap;" parent="1" vertex="1">
                    <mxGeometry x="1340" y="240" width="210" height="160" as="geometry"/>
                </mxCell>
                <mxCell id="CI6Zdgakn2NXTunETvcN-12" style="edgeStyle=orthogonalEdgeStyle;rounded=0;orthogonalLoop=1;jettySize=auto;html=1;exitX=0.5;exitY=1;exitDx=0;exitDy=0;" parent="1" source="CI6Zdgakn2NXTunETvcN-11" target="CI6Zdgakn2NXTunETvcN-11" edge="1">
                    <mxGeometry relative="1" as="geometry"/>
                </mxCell>
                <mxCell id="CI6Zdgakn2NXTunETvcN-13" value="" style="endArrow=diamondThin;endFill=0;endSize=24;html=1;rounded=0;exitX=1;exitY=0.5;exitDx=0;exitDy=0;entryX=0;entryY=0.5;entryDx=0;entryDy=0;" parent="1" source="CI6Zdgakn2NXTunETvcN-10" target="CI6Zdgakn2NXTunETvcN-6" edge="1">
                    <mxGeometry width="160" relative="1" as="geometry">
                        <mxPoint x="1540" y="580" as="sourcePoint"/>
                        <mxPoint x="1700" y="580" as="targetPoint"/>
                    </mxGeometry>
                </mxCell>
                <mxCell id="CI6Zdgakn2NXTunETvcN-15" value="&lt;p style=&quot;margin:0px;margin-top:4px;text-align:center;&quot;&gt;&lt;b&gt;OrderItem&lt;/b&gt;&lt;/p&gt;&lt;hr size=&quot;1&quot;&gt;&lt;p style=&quot;margin:0px;margin-left:4px;&quot;&gt;&lt;span style=&quot;background-color: initial;&quot;&gt;+ Products: Product&lt;/span&gt;&lt;br&gt;&lt;/p&gt;&amp;nbsp;+ License: License&lt;br&gt;&amp;nbsp;+ User: User&lt;br&gt;&lt;p style=&quot;border-color: var(--border-color); margin: 0px 0px 0px 4px;&quot;&gt;+ WorkStaion: WorkStation&lt;br&gt;&lt;/p&gt;&lt;p style=&quot;border-color: var(--border-color); margin: 0px 0px 0px 4px;&quot;&gt;+ Description: string&lt;br&gt;&lt;/p&gt;&lt;hr size=&quot;1&quot;&gt;&lt;p style=&quot;margin:0px;margin-left:4px;&quot;&gt;&lt;br&gt;&lt;/p&gt;" style="verticalAlign=top;align=left;overflow=fill;fontSize=12;fontFamily=Helvetica;html=1;whiteSpace=wrap;" parent="1" vertex="1">
                    <mxGeometry x="1720" y="560" width="220" height="140" as="geometry"/>
                </mxCell>
                <mxCell id="CI6Zdgakn2NXTunETvcN-16" value="" style="endArrow=diamondThin;endFill=1;endSize=24;html=1;rounded=0;exitX=1;exitY=0.5;exitDx=0;exitDy=0;entryX=0.005;entryY=0.608;entryDx=0;entryDy=0;entryPerimeter=0;" parent="1" source="CI6Zdgakn2NXTunETvcN-15" target="CI6Zdgakn2NXTunETvcN-6" edge="1">
                    <mxGeometry width="160" relative="1" as="geometry">
                        <mxPoint x="1900" y="680" as="sourcePoint"/>
                        <mxPoint x="2060" y="680" as="targetPoint"/>
                    </mxGeometry>
                </mxCell>
                <mxCell id="CI6Zdgakn2NXTunETvcN-17" value="" style="endArrow=diamondThin;endFill=0;endSize=24;html=1;rounded=0;exitX=1;exitY=0.5;exitDx=0;exitDy=0;entryX=-0.018;entryY=0.306;entryDx=0;entryDy=0;entryPerimeter=0;" parent="1" source="CI6Zdgakn2NXTunETvcN-11" target="CI6Zdgakn2NXTunETvcN-15" edge="1">
                    <mxGeometry width="160" relative="1" as="geometry">
                        <mxPoint x="1620" y="470" as="sourcePoint"/>
                        <mxPoint x="1650" y="500" as="targetPoint"/>
                    </mxGeometry>
                </mxCell>
                <mxCell id="CI6Zdgakn2NXTunETvcN-18" value="" style="endArrow=diamondThin;endFill=0;endSize=24;html=1;rounded=0;exitX=1;exitY=0.5;exitDx=0;exitDy=0;entryX=-0.006;entryY=0.81;entryDx=0;entryDy=0;entryPerimeter=0;" parent="1" source="CI6Zdgakn2NXTunETvcN-4" target="CI6Zdgakn2NXTunETvcN-15" edge="1">
                    <mxGeometry width="160" relative="1" as="geometry">
                        <mxPoint x="1670" y="850" as="sourcePoint"/>
                        <mxPoint x="1830" y="850" as="targetPoint"/>
                    </mxGeometry>
                </mxCell>
                <mxCell id="CI6Zdgakn2NXTunETvcN-19" value="" style="endArrow=diamondThin;endFill=0;endSize=24;html=1;rounded=0;exitX=1;exitY=0.5;exitDx=0;exitDy=0;entryX=-0.013;entryY=0.562;entryDx=0;entryDy=0;entryPerimeter=0;" parent="1" source="CI6Zdgakn2NXTunETvcN-11" target="CI6Zdgakn2NXTunETvcN-10" edge="1">
                    <mxGeometry width="160" relative="1" as="geometry">
                        <mxPoint x="1560" y="310" as="sourcePoint"/>
                        <mxPoint x="1670" y="320" as="targetPoint"/>
                    </mxGeometry>
                </mxCell>
                <mxCell id="CI6Zdgakn2NXTunETvcN-27" value="&lt;p style=&quot;margin:0px;margin-top:4px;text-align:center;&quot;&gt;&lt;b&gt;DataFasade&lt;/b&gt;&lt;/p&gt;&lt;hr size=&quot;1&quot;&gt;&lt;p style=&quot;margin:0px;margin-left:4px;&quot;&gt;+ Products: List&amp;lt;Product&amp;gt;&lt;/p&gt;&amp;nbsp;+ Licenses: List&amp;lt;License&amp;gt;&lt;br&gt;&amp;nbsp;+ Clients: List&amp;lt;Client&amp;gt;&lt;br&gt;&amp;nbsp;+ Orders: List&amp;lt;Order&amp;gt;&lt;br&gt;&lt;br&gt;&lt;br&gt;&lt;hr size=&quot;1&quot;&gt;&amp;nbsp;+ AddProduct(Product p): void&lt;p style=&quot;margin:0px;margin-left:4px;&quot;&gt;+ AddLicense(License l): void&lt;br&gt;&lt;/p&gt;&lt;p style=&quot;margin:0px;margin-left:4px;&quot;&gt;+ AddClient(Client c): void&lt;br&gt;&lt;/p&gt;&amp;nbsp;+ AddOrder(Order o): void" style="verticalAlign=top;align=left;overflow=fill;fontSize=12;fontFamily=Helvetica;html=1;whiteSpace=wrap;" parent="1" vertex="1">
                    <mxGeometry x="660" y="365" width="210" height="260" as="geometry"/>
                </mxCell>
                <mxCell id="CI6Zdgakn2NXTunETvcN-28" value="" style="shape=cylinder3;whiteSpace=wrap;html=1;boundedLbl=1;backgroundOutline=1;size=15;" parent="1" vertex="1">
                    <mxGeometry x="-110" y="370" width="120" height="130" as="geometry"/>
                </mxCell>
                <mxCell id="CI6Zdgakn2NXTunETvcN-29" value="&lt;p style=&quot;margin:0px;margin-top:4px;text-align:center;&quot;&gt;&lt;i style=&quot;border-color: var(--border-color);&quot;&gt;&amp;lt;&amp;lt;Interface&amp;gt;&amp;gt;&lt;/i&gt;&lt;b&gt;&lt;br&gt;&lt;/b&gt;&lt;/p&gt;&lt;p style=&quot;margin:0px;margin-top:4px;text-align:center;&quot;&gt;&lt;b&gt;DatabaseAPI&lt;/b&gt;&lt;/p&gt;&lt;hr size=&quot;1&quot;&gt;&lt;p style=&quot;margin:0px;margin-left:4px;&quot;&gt;&lt;/p&gt;&lt;br&gt;&lt;hr size=&quot;1&quot;&gt;&amp;nbsp;+ AddProduct(Product p): void&lt;p style=&quot;margin:0px;margin-left:4px;&quot;&gt;+ AddLicense(License l): void&lt;br&gt;&lt;/p&gt;&lt;p style=&quot;margin:0px;margin-left:4px;&quot;&gt;+ AddClient(Client c): void&lt;br&gt;&lt;/p&gt;&amp;nbsp;+ AddOrder(Order o): void" style="verticalAlign=top;align=left;overflow=fill;fontSize=12;fontFamily=Helvetica;html=1;whiteSpace=wrap;" parent="1" vertex="1">
                    <mxGeometry x="195" y="220" width="210" height="160" as="geometry"/>
                </mxCell>
                <mxCell id="CI6Zdgakn2NXTunETvcN-30" value="" style="endArrow=classic;startArrow=classic;html=1;rounded=0;entryX=0;entryY=0.5;entryDx=0;entryDy=0;exitX=1;exitY=0.5;exitDx=0;exitDy=0;" parent="1" source="CI6Zdgakn2NXTunETvcN-34" target="CI6Zdgakn2NXTunETvcN-27" edge="1">
                    <mxGeometry width="50" height="50" relative="1" as="geometry">
                        <mxPoint x="300" y="560" as="sourcePoint"/>
                        <mxPoint x="350" y="510" as="targetPoint"/>
                    </mxGeometry>
                </mxCell>
                <mxCell id="CI6Zdgakn2NXTunETvcN-33" value="&lt;p style=&quot;margin:0px;margin-top:4px;text-align:center;&quot;&gt;&lt;i style=&quot;border-color: var(--border-color);&quot;&gt;&amp;lt;&amp;lt;Interface&amp;gt;&amp;gt;&lt;/i&gt;&lt;b&gt;&lt;br&gt;&lt;/b&gt;&lt;/p&gt;&lt;p style=&quot;margin:0px;margin-top:4px;text-align:center;&quot;&gt;&lt;b&gt;DataFasade&lt;/b&gt;&lt;/p&gt;&lt;hr size=&quot;1&quot;&gt;&lt;p style=&quot;margin:0px;margin-left:4px;&quot;&gt;&lt;/p&gt;&lt;br&gt;&lt;hr size=&quot;1&quot;&gt;&amp;nbsp;+ AddProduct(Product p): void&lt;p style=&quot;margin:0px;margin-left:4px;&quot;&gt;+ AddLicense(License l): void&lt;br&gt;&lt;/p&gt;&lt;p style=&quot;margin:0px;margin-left:4px;&quot;&gt;+ AddClient(Client c): void&lt;br&gt;&lt;/p&gt;&amp;nbsp;+ AddOrder(Order o): void" style="verticalAlign=top;align=left;overflow=fill;fontSize=12;fontFamily=Helvetica;html=1;whiteSpace=wrap;" parent="1" vertex="1">
                    <mxGeometry x="660" y="185" width="210" height="155" as="geometry"/>
                </mxCell>
                <mxCell id="CI6Zdgakn2NXTunETvcN-34" value="&lt;p style=&quot;margin:0px;margin-top:4px;text-align:center;&quot;&gt;&lt;b style=&quot;background-color: initial;&quot;&gt;static DatabaseAPI&lt;/b&gt;&lt;br&gt;&lt;/p&gt;&lt;hr size=&quot;1&quot;&gt;&lt;p style=&quot;margin:0px;margin-left:4px;&quot;&gt;&lt;/p&gt;&lt;br&gt;&lt;hr size=&quot;1&quot;&gt;&amp;nbsp;+ AddProduct(Product p): void&lt;p style=&quot;margin:0px;margin-left:4px;&quot;&gt;+ AddLicense(License l): void&lt;br&gt;&lt;/p&gt;&lt;p style=&quot;margin:0px;margin-left:4px;&quot;&gt;+ AddClient(Client c): void&lt;br&gt;&lt;/p&gt;&amp;nbsp;+ AddOrder(Order o): void" style="verticalAlign=top;align=left;overflow=fill;fontSize=12;fontFamily=Helvetica;html=1;whiteSpace=wrap;" parent="1" vertex="1">
                    <mxGeometry x="195" y="430" width="210" height="130" as="geometry"/>
                </mxCell>
                <mxCell id="CI6Zdgakn2NXTunETvcN-35" value="" style="shape=flexArrow;endArrow=classic;startArrow=classic;html=1;rounded=0;exitX=1;exitY=0.5;exitDx=0;exitDy=0;exitPerimeter=0;entryX=0;entryY=0.5;entryDx=10;entryDy=0;entryPerimeter=0;" parent="1" source="CI6Zdgakn2NXTunETvcN-28" target="CI6Zdgakn2NXTunETvcN-31" edge="1">
                    <mxGeometry width="100" height="100" relative="1" as="geometry">
                        <mxPoint x="-30" y="480" as="sourcePoint"/>
                        <mxPoint x="70" y="380" as="targetPoint"/>
                    </mxGeometry>
                </mxCell>
            </root>
        </mxGraphModel>
    </diagram>
</mxfile>